<?xml version="1.0" encoding="utf-8"?>
<!-- Generator: Adobe Illustrator 26.0.2, SVG Export Plug-In . SVG Version: 6.00 Build 0)  -->
<svg version="1.1" id="Warstwa_3" xmlns="http://www.w3.org/2000/svg" xmlns:xlink="http://www.w3.org/1999/xlink" x="0px" y="0px"
	 viewBox="0 0 430 430" style="enable-background:new 0 0 430 430;" xml:space="preserve">
<style type="text/css">
	.st0{fill:#121331;}
	.st1{fill:#F9C9C0;}
	.st2{opacity:0.5;fill:#F9C9C0;}
	.st3{fill:#646e78;}
	.st4{opacity:0.5;fill:#646e78;}
	.st5{fill:#3A3347;}
	.st6{opacity:0.5;fill:#3A3347;}
	.st7{fill:#b26836;}
	.st8{opacity:0.5;fill:#b26836;}
	.st9{fill:#ffc738;}
	.st10{fill:#4BB3FD;}
	.st11{fill:#F28BA8;}
	.st12{opacity:0.5;fill:#F28BA8;}
	.st13{opacity:0.5;fill:#4BB3FD;}
	.st14{fill:#EBE6EF;}
	.st15{opacity:0.5;fill:#EBE6EF;}
	.st16{opacity:0.5;fill:#ffc738;}
	.st17{fill:#92140C;}
	.st18{opacity:0.5;fill:#92140C;}
	.st19{fill:#F24C00;}
	.st20{opacity:0.5;fill:#F24C00;}
	.st21{fill:#2CA58D;}
	.st22{opacity:0.5;fill:#2CA58D;}
	.st23{clip-path:url(#SVGID_00000178183392891131544390000013608313443126664320_);fill:#121331;}
	.st24{fill:none;stroke:#121331;stroke-width:7;stroke-linecap:round;stroke-linejoin:round;stroke-miterlimit:10;}
	.st25{opacity:0.5;}
	.st26{fill:none;stroke:#4BB3FD;stroke-width:7;stroke-linecap:round;stroke-linejoin:round;stroke-miterlimit:10;}
</style>
<path class="st9" d="M174.24,304.17c-1.93,0-3.5-1.57-3.5-3.5V94.83c0-1.93,1.57-3.5,3.5-3.5s3.5,1.57,3.5,3.5v205.84
	C177.74,302.61,176.17,304.17,174.24,304.17z"/>
<path class="st9" d="M201.41,307.48c-1.93,0-3.5-1.57-3.5-3.5V94.83c0-1.93,1.57-3.5,3.5-3.5s3.5,1.57,3.5,3.5v209.14
	C204.91,305.91,203.34,307.48,201.41,307.48z"/>
<path class="st9" d="M228.57,307.48c-1.93,0-3.5-1.57-3.5-3.5V94.83c0-1.93,1.57-3.5,3.5-3.5s3.5,1.57,3.5,3.5v209.14
	C232.07,305.91,230.51,307.48,228.57,307.48z"/>
<path class="st9" d="M255.74,304.18c-1.93,0-3.5-1.57-3.5-3.5V94.83c0-1.93,1.57-3.5,3.5-3.5s3.5,1.57,3.5,3.5v205.85
	C259.24,302.61,257.67,304.18,255.74,304.18z"/>
<path class="st3" d="M286.75,337.77l42.74,25.65c5.32,3.19,3.06,11.36-3.15,11.36h-222.7c-6.2,0-8.47-8.17-3.15-11.36l42.75-25.65
	H286.75z"/>
<path class="st7" d="M241.5,348.09c63.65,0,111.39-56.32,98.93-116.7c0,0-22.89-106.93-22.89-115.81
	c0-21.26,17.23-38.49,38.49-38.49c0.1,0,0.2,0,0.3,0c8.39,0.08,11.43-10.91,4.15-15.08c-7.54-4.32-16.27-6.79-25.59-6.79
	c-28.48,0-51.55,23.09-51.55,51.55c0,4.42,0.56,8.72,1.6,12.81l0,0l19.78,98.92c8.92,44.23-25.22,85.48-70.75,85.48h-37.93
	c-45.52,0-79.66-41.25-70.75-85.48l19.78-98.92l0,0c1.04-4.09,1.6-8.39,1.6-12.81c0-28.46-23.08-51.55-51.55-51.55
	c-9.31,0-18.05,2.47-25.59,6.79c-7.28,4.17-4.23,15.16,4.15,15.08c0.1,0,0.2,0,0.3,0c21.26,0,38.49,17.23,38.49,38.49
	c0,8.88-22.89,115.81-22.89,115.81c-12.46,60.38,35.27,116.7,98.93,116.7H241.5z"/>
<path class="st4" d="M125.66,374.74h-22.02c-6.2,0-8.46-8.17-3.14-11.36l42.74-25.65c4.22,2.06,8.62,3.84,13.18,5.3l-33.91,20.35
	C117.19,366.57,119.45,374.74,125.66,374.74z"/>
<path class="st8" d="M210.51,348.05H188.5c-11.27,0-22.05-1.77-32.08-5.02c-4.56-1.46-8.96-3.24-13.18-5.3
	c-38.99-18.97-62.92-61.55-53.67-106.38c0,0,22.9-106.93,22.9-115.81c0-21.26-17.24-38.49-38.49-38.49h-0.3
	c-8.39,0.08-11.43-10.91-4.15-15.08c3.03-1.74,6.25-3.18,9.63-4.26c1.28,2.5,3.84,4.37,7.32,4.34h0.3
	c21.26,0,48.93,17.43,47.7,53.49c-0.3,8.88-22.89,115.81-22.89,115.81c-9.26,44.83,14.67,87.42,53.66,106.38
	C178.77,344.31,194.11,348.05,210.51,348.05z"/>
<path class="st0" d="M284.73,98.33H145.27c-1.93,0-3.5-1.57-3.5-3.5s1.57-3.5,3.5-3.5h139.45c1.93,0,3.5,1.57,3.5,3.5
	S286.66,98.33,284.73,98.33z"/>
<path class="st0" d="M241.5,351.59h-53c-32.16,0-62.03-14.03-81.96-38.49c-18.97-23.28-26.4-53.32-20.4-82.42
	c9.18-42.86,22.82-108.86,22.82-115.1c0-19.29-15.7-34.99-34.99-34.99l-0.26,0c-0.04,0-0.08,0-0.12,0c-5.35,0-9.86-3.43-11.25-8.57
	c-1.39-5.14,0.79-10.38,5.45-13.05c8.28-4.75,17.73-7.26,27.33-7.26c30.36,0,55.05,24.7,55.05,55.05c0,4.6-0.57,9.19-1.7,13.65
	l-19.75,98.75c-4.01,19.91,1.09,40.36,13.99,56.12c13.09,16,32.53,25.17,53.33,25.17h37.93c20.8,0,40.23-9.18,53.33-25.17
	c12.9-15.76,18-36.21,13.99-56.12l-19.75-98.76c-1.13-4.46-1.7-9.06-1.7-13.66c0-30.36,24.7-55.05,55.05-55.05
	c9.6,0,19.05,2.51,27.33,7.26c4.65,2.67,6.84,7.91,5.45,13.05c-1.39,5.14-5.91,8.57-11.25,8.57c-0.04,0-0.08,0-0.12,0l-0.27,0
	c-19.29,0-34.99,15.7-34.99,34.99c0,6.24,13.64,72.24,22.82,115.07c6.01,29.12-1.42,59.16-20.39,82.45
	C303.53,337.56,273.66,351.59,241.5,351.59z M73.98,73.59c23.15,0,41.99,18.84,41.99,41.99c0,8.99-20.62,105.56-22.97,116.54
	c-5.57,27,1.34,54.91,18.97,76.56c18.59,22.82,46.49,35.91,76.53,35.91h53c30.04,0,57.94-13.09,76.53-35.91
	c17.63-21.64,24.55-49.56,18.97-76.58c-2.35-10.96-22.96-107.52-22.96-116.51c0-23.15,18.84-41.99,41.99-41.99l0.33,0
	c0.02,0,0.04,0,0.05,0c2.63,0,4.04-1.75,4.49-3.4c0.44-1.63,0.1-3.84-2.17-5.14c-7.22-4.14-15.47-6.33-23.85-6.33
	c-26.5,0-48.05,21.56-48.05,48.05c0,3.97,0.49,7.93,1.45,11.79c0.03,0.11,0.06,0.22,0.08,0.33l19.78,98.92
	c4.43,21.96-1.2,44.54-15.43,61.93c-14.43,17.63-35.84,27.74-58.75,27.74h-37.93c-22.9,0-44.32-10.11-58.75-27.74
	c-14.24-17.39-19.86-39.97-15.43-61.93l19.78-98.91c0.02-0.11,0.05-0.22,0.08-0.33c0.96-3.85,1.45-7.82,1.45-11.79
	c0-26.5-21.56-48.05-48.05-48.05c-8.38,0-16.62,2.19-23.85,6.33c-2.27,1.3-2.61,3.51-2.17,5.14c0.45,1.66,1.88,3.47,4.55,3.4
	L73.98,73.59z"/>
<path class="st0" d="M326.34,378.28h-222.7c-4.38,0-8.1-2.83-9.27-7.05s0.57-8.56,4.32-10.81l42.75-25.65
	c1.66-0.99,3.81-0.46,4.8,1.2c1,1.66,0.46,3.81-1.2,4.8l-42.75,25.65c-1.58,0.95-1.3,2.49-1.18,2.94c0.12,0.45,0.68,1.92,2.52,1.92
	h222.7c1.85,0,2.4-1.47,2.52-1.92c0.12-0.45,0.41-1.99-1.17-2.94l-42.74-25.65c-1.66-0.99-2.2-3.14-1.2-4.8
	c1-1.66,3.15-2.19,4.8-1.2l42.74,25.65c3.75,2.25,5.49,6.6,4.32,10.81S330.72,378.28,326.34,378.28z"/>
</svg>
